<svg xmlns="http://www.w3.org/2000/svg" viewBox="0 0 512 512">
  <defs>
    <linearGradient id="g" x1="0" y1="0" x2="1" y2="1">
      <stop offset="0" stop-color="#0b3d2e"/>
      <stop offset=".7" stop-color="#0b6e4f"/>
      <stop offset="1" stop-color="#11875f"/>
    </linearGradient>
  </defs>
  <rect width="512" height="512" rx="96" fill="url(#g)"/>
  <path d="M256 96c-14 52-96 118-96 178 0 38 28 66 64 66 12 0 22-3 32-9-4 26-16 48-36 65v20h72v-20c-20-17-32-39-36-65 10 6 20 9 32 9 36 0 64-28 64-66 0-60-82-126-96-178z" fill="#fff"/>
  <text x="256" y="470" text-anchor="middle" font-family="Segoe UI, Arial, sans-serif" font-size="64" font-weight="700" fill="#cfe8dd">SuitPlay</text>
</svg>
